<svg id="Layer_1" data-name="Layer 1" xmlns="http://www.w3.org/2000/svg" viewBox="0 0 260 280"><defs><style>.cls-2{fill:#41418d}</style></defs><path style="fill:none" d="M0 0h260v280H0z"/><path class="cls-2" d="M130 35c-50.89 0-92.14 47-92.14 105S79.11 245 130 245s92.14-47 92.14-105S180.89 35 130 35Zm0 203.57c-42.6 0-77.14-44.13-77.14-98.57S87.4 41.43 130 41.43s77.14 44.13 77.14 98.57-34.54 98.57-77.14 98.57Z"/><path class="cls-2" d="M64.65 133.57h130.7a3.21 3.21 0 0 0 3.22-3.2 3.22 3.22 0 0 0-3.22-3.21h-7.5a2.13 2.13 0 0 1-2.13-2.14v-26.8a3.22 3.22 0 0 0-6.44 0v9.63a2.13 2.13 0 0 1-2.13 2.15h-8.58a4.29 4.29 0 0 1-4.29-4.28V73.58a2.14 2.14 0 0 0 1.72-3.43l-8.57-11.43a2.15 2.15 0 0 0-3.43 0l-8.57 11.43a2.14 2.14 0 0 0 1.72 3.43v32.14a4.29 4.29 0 0 1-4.29 4.28h-8.58a2.14 2.14 0 0 1-2.14-2.15v-9.63a3.22 3.22 0 1 0-6.43 0V125a2.14 2.14 0 0 1-2.15 2.14H115a2.14 2.14 0 0 1-2.15-2.14V90.72a2.14 2.14 0 0 0 1.71-3.43L106 75.86a2.17 2.17 0 0 0-3.44 0L94 87.29a2.14 2.14 0 0 0 1.71 3.43v15a4.29 4.29 0 0 1-4.3 4.28h-8.55a2.13 2.13 0 0 1-2.14-2.15v-9.63a3.22 3.22 0 1 0-6.43 0V125a2.15 2.15 0 0 1-2.15 2.14h-7.49a3.21 3.21 0 0 0-3.22 3.21 3.21 3.21 0 0 0 3.22 3.22Zm91.06-55.71a4.29 4.29 0 1 1-4.28 4.29 4.29 4.29 0 0 1 4.28-4.29Zm-6.43 40.71a6.44 6.44 0 0 1 12.87 0v8.57h-12.87ZM104.29 95a4.29 4.29 0 1 1-4.3 4.3 4.29 4.29 0 0 1 4.3-4.3ZM178.9 152.86H145a2.15 2.15 0 0 0 0 4.29h2l-2 45c-.36 8.63-2.14 21.43-6.43 21.43a2.14 2.14 0 1 0 0 4.28h2.14c8.26 0 17.74-6 19.14-23.69a12.54 12.54 0 0 0 7.51 2.26c8.57 0 18.48-6.44 19.29-25.71l.82-18.91a8.58 8.58 0 0 0-8.57-8.95Zm-14.61 49.29c-2.15 0-4.29 0-3.36-21.43l1-23.57h6.23a4.29 4.29 0 0 1 4.29 4.47l-.83 19.1c-.33 8.63-3.05 21.43-7.33 21.43Z"/><path class="cls-2" d="M195.36 140h-48.22c-17.14 0-23.57 8.57-23.57 17.14 0 17.14 2.14 32.14 2.14 45 0 17.15-2.14 21.44-4.28 21.44-4.29 0-6.07-12.8-6.43-21.43l-2-47.24a2.15 2.15 0 0 0-2.14-2H95.71a2.15 2.15 0 0 0 0 4.29H98l1 23.58c.93 21.42-1.21 21.42-3.36 21.42-4.28 0-7-12.8-7.36-21.43l-1.12-25.81a2.14 2.14 0 0 0-2.14-2H70a2.15 2.15 0 0 0 0 4.29h2.33l1 23.57c.81 19.27 10.72 25.71 19.29 25.71a12.54 12.54 0 0 0 7.51-2.26c1.4 17.67 10.88 23.69 19.14 23.69 8.57 0 17.14-6.43 17.14-25.71v-45a10.75 10.75 0 0 1 10.71-10.72h48.22a3.21 3.21 0 0 0 0-6.42Z"/><path class="cls-2" d="M123.57 140H64.64a3.21 3.21 0 1 0 0 6.42h52.5a13.34 13.34 0 0 1 6.43-6.42Z"/><path d="M113.13 67.09c5.57.7 7.66 2.79 8.35 8.36.35 2.77 1.4 3.48 2.09 3.48s1.75-.71 2.09-3.48c.7-5.57 2.79-7.66 8.36-8.36 2.76-.34 3.48-1.39 3.48-2.08s-.72-1.75-3.48-2.09c-5.57-.7-7.66-2.79-8.36-8.36-.34-2.77-1.39-3.48-2.09-3.48s-1.74.71-2.09 3.48c-.69 5.57-2.78 7.66-8.35 8.36-2.77.34-3.49 1.39-3.49 2.09s.72 1.74 3.49 2.08Z" style="fill:#eb9b64"/></svg>