<svg width="84" height="96" fill="none" xmlns="http://www.w3.org/2000/svg"><path d="M41.817 0C18.721 0 0 21.318 0 47.625S18.721 95.25 41.817 95.25c23.097 0 41.818-21.318 41.818-47.625S64.914 0 41.817 0Zm0 92.334c-19.334 0-35.01-20.017-35.01-44.709 0-24.692 15.676-44.709 35.01-44.709 19.334 0 35.01 20.017 35.01 44.709 0 24.692-15.676 44.709-35.01 44.709Z" fill="#41418D"/><path d="M12.159 44.709h59.317a1.458 1.458 0 0 0 1.462-1.452 1.46 1.46 0 0 0-1.462-1.456h-3.403a.968.968 0 0 1-.967-.97V28.674a1.46 1.46 0 0 0-2.495-1.033 1.46 1.46 0 0 0-.428 1.033v4.368a.967.967 0 0 1-.967.975h-3.894a1.948 1.948 0 0 1-1.947-1.941V17.499a.972.972 0 0 0 .781-1.556l-3.89-5.184a.977.977 0 0 0-1.556 0l-3.89 5.184a.97.97 0 0 0 .781 1.556v14.578a1.945 1.945 0 0 1-1.947 1.94H43.76a.973.973 0 0 1-.971-.974v-4.368a1.46 1.46 0 0 0-2.521-1.085 1.46 1.46 0 0 0-.398 1.085V40.82a.97.97 0 0 1-.975.971H35.01a.972.972 0 0 1-.976-.97v-15.55a.973.973 0 0 0 .968-1.06.97.97 0 0 0-.192-.495l-3.885-5.184a.985.985 0 0 0-1.561 0l-3.885 5.184a.97.97 0 0 0 .776 1.556v6.804a1.945 1.945 0 0 1-1.951 1.94h-3.88a.966.966 0 0 1-.972-.974v-4.368a1.462 1.462 0 1 0-2.918 0V40.82a.975.975 0 0 1-.976.971h-3.4a1.457 1.457 0 1 0 0 2.916ZM53.486 19.44a1.948 1.948 0 0 1 1.915 2.323 1.945 1.945 0 0 1-2.655 1.421 1.947 1.947 0 0 1-.634-3.172c.364-.365.858-.57 1.374-.572Zm-2.918 18.465a2.92 2.92 0 0 1 2.92-2.806 2.924 2.924 0 0 1 2.92 2.806v3.887h-5.84v-3.887Zm-20.419-10.69a1.948 1.948 0 0 1 1.905 2.326 1.945 1.945 0 0 1-2.652 1.418 1.947 1.947 0 0 1 .747-3.745ZM64.01 53.458H48.625a.976.976 0 0 0 0 1.946h.908l-.908 20.41c-.163 3.915-.971 9.72-2.918 9.72a.971.971 0 1 0 0 1.942h.971c3.749 0 8.051-2.722 8.687-10.745a5.694 5.694 0 0 0 3.408 1.025c3.89 0 8.387-2.921 8.755-11.662l.372-8.576a3.887 3.887 0 0 0-2.361-3.747 3.895 3.895 0 0 0-1.529-.313Zm-6.63 22.356c-.976 0-1.947 0-1.525-9.72l.454-10.69h2.827a1.948 1.948 0 0 1 1.947 2.027l-.377 8.663c-.15 3.915-1.384 9.72-3.326 9.72Z" fill="#41418D"/><path d="M71.48 47.625H49.597c-7.779 0-10.697 3.887-10.697 7.774 0 7.774.971 14.578.971 20.41 0 7.78-.971 9.725-1.942 9.725-1.947 0-2.755-5.805-2.918-9.72l-.908-21.426a.975.975 0 0 0-.971-.907h-6.876a.976.976 0 0 0 0 1.945h1.04l.453 10.696c.422 9.715-.55 9.715-1.525 9.715-1.942 0-3.177-5.806-3.34-9.72l-.508-11.707a.97.97 0 0 0-.972-.907h-6.816a.976.976 0 0 0 0 1.946h1.057l.454 10.69c.367 8.741 4.865 11.662 8.755 11.662a5.694 5.694 0 0 0 3.408-1.025c.635 8.015 4.938 10.745 8.686 10.745 3.89 0 7.78-2.916 7.78-11.661V55.45a4.874 4.874 0 0 1 4.86-4.863h21.885a1.457 1.457 0 0 0 1.03-2.486 1.457 1.457 0 0 0-1.03-.426l.009-.05Z" fill="#41418D"/><path d="M38.9 47.625H12.153a1.46 1.46 0 0 0-1.457 1.456 1.453 1.453 0 0 0 .9 1.345c.176.073.366.11.557.11h23.827a6.053 6.053 0 0 1 2.918-2.911Z" fill="#41418D"/><path d="M34.161 14.555c2.528.318 3.477 1.266 3.79 3.792.158 1.256.635 1.578.948 1.578.313 0 .794-.322.949-1.578.318-2.526 1.266-3.474 3.794-3.792 1.252-.154 1.58-.63 1.58-.943 0-.313-.328-.794-1.58-.948-2.528-.318-3.477-1.266-3.794-3.792-.154-1.257-.631-1.579-.949-1.579-.318 0-.79.322-.948 1.579-.313 2.526-1.262 3.474-3.79 3.792-1.257.154-1.584.63-1.584.948 0 .317.327.789 1.584.943Z" fill="#EB9B64"/></svg>