<svg width="35" height="35" fill="none" xmlns="http://www.w3.org/2000/svg"><path d="M25 17.508c0 .375-.39.945-1.867 1.126-3 .375-4.118 1.501-4.5 4.504-.18 1.502-.75 1.862-1.11 1.862-.36 0-.945-.375-1.125-1.862-.383-3.003-1.5-4.129-4.5-4.504-1.493-.196-1.898-.766-1.898-1.127 0-.36.39-.93 1.883-1.126 3-.375 4.117-1.501 4.5-4.504C16.578 10.39 17.148 10 17.5 10s.93.39 1.11 1.862c.383 3.003 1.5 4.129 4.5 4.504 1.5.196 1.89.751 1.89 1.142ZM10 10.005c0 .25-.26.63-1.245.75-2 .251-2.745 1.002-3 3.004-.12 1-.5 1.241-.74 1.241s-.63-.25-.75-1.241c-.255-2.002-1-2.753-3-3.003C.27 10.626 0 10.246 0 10.005c0-.24.26-.62 1.255-.75 2-.251 2.745-1.002 3-3.004C4.385 5.261 4.765 5 5 5s.62.26.74 1.241c.255 2.002 1 2.753 3 3.003 1 .13 1.26.5 1.26.761Z" fill="#F0E6DC"/></svg>